<svg xmlns="http://www.w3.org/2000/svg" width="30" height="30" fill="none"><path fill="#caff33" d="M26.053 21.431a15 15 0 0 1-1.478 2.658q-1.168 1.663-1.905 2.302-1.14 1.049-2.448 1.078-.94.002-2.26-.54-1.324-.539-2.435-.538-1.165-.001-2.503.538-1.339.542-2.163.569-1.255.053-2.503-1.107-.797-.695-1.992-2.383-1.281-1.803-2.106-4.184-.885-2.575-.885-4.987 0-2.766 1.196-4.765A7 7 0 0 1 7.076 7.54a6.74 6.74 0 0 1 3.386-.956c.664 0 1.536.206 2.619.61q1.62.609 2.077.61c.227 0 .998-.24 2.304-.719q1.85-.665 3.13-.556 3.473.279 5.208 2.742-3.103 1.882-3.072 5.263c.019 1.754.655 3.215 1.906 4.374q.849.806 1.905 1.25-.229.663-.486 1.274M20.747.551q-.001 2.064-1.504 3.847c-1.209 1.413-2.67 2.23-4.256 2.101a4 4 0 0 1-.032-.521c0-1.32.575-2.733 1.596-3.889q.765-.877 1.943-1.459Q19.671.056 20.718 0q.03.277.029.55"/></svg>