<svg xmlns="http://www.w3.org/2000/svg" width="30" height="30" fill="none"><path fill="#caff33" d="M14.48 2.97a.94.94 0 0 1 1.04 0l11.25 7.5a.937.937 0 1 1-1.04 1.56L15 4.877 4.27 12.03a.937.937 0 1 1-1.04-1.56z"/><path fill="#caff33" fill-rule="evenodd" d="M25.313 12.916v12.397h.937a.937.937 0 1 1 0 1.875H3.75a.937.937 0 1 1 0-1.875h.938V12.916c0-.462.336-.855.792-.927A61.4 61.4 0 0 1 15 11.25c3.238 0 6.418.253 9.52.74a.94.94 0 0 1 .793.926m-9.375 3.021a.937.937 0 1 0-1.876 0v8.438a.937.937 0 1 0 1.876 0zm3.75-.937c.517 0 .937.42.937.938v8.437a.937.937 0 1 1-1.875 0v-8.437c0-.518.42-.938.938-.938m-8.438.938a.937.937 0 1 0-1.875 0v8.437a.937.937 0 1 0 1.875 0z" clip-rule="evenodd"/><path fill="#caff33" d="M15 9.844a1.406 1.406 0 1 0 0-2.813 1.406 1.406 0 0 0 0 2.813"/></svg>