<svg xmlns="http://www.w3.org/2000/svg" width="35" height="35" fill="none"><path fill="#caff33" fill-rule="evenodd" d="M22.564 15.326c.233-1.565-.959-2.407-2.588-2.968l.529-2.12-1.292-.322-.514 2.065a53 53 0 0 0-1.034-.244l.518-2.078-1.29-.322-.529 2.12q-.421-.095-.824-.194l.002-.006-1.78-.445-.344 1.379s.958.22.938.233c.523.13.617.476.601.75l-.602 2.416q.056.014.134.043l-.136-.034-.844 3.384c-.064.16-.226.397-.592.307.013.019-.938-.234-.938-.234l-.64 1.477 1.68.42a58 58 0 0 1 .92.237l-.535 2.145 1.29.321.529-2.121q.526.142 1.028.266l-.527 2.112 1.29.322.535-2.14c2.2.416 3.856.248 4.552-1.742.561-1.603-.028-2.528-1.186-3.131.843-.195 1.479-.75 1.648-1.896m-2.95 4.136c-.366 1.47-2.67.862-3.722.584l-.25-.065.708-2.842q.133.032.317.074c1.09.244 3.321.745 2.947 2.249m-2.728-3.568c.878.235 2.793.746 3.127-.59.34-1.368-1.521-1.78-2.43-1.981l-.267-.061-.642 2.577z" clip-rule="evenodd"/></svg>