<svg xmlns="http://www.w3.org/2000/svg" width="34" height="34" fill="none"><path fill="#caff33" d="M17 1.063c-6.455 0-11.687 5.232-11.687 11.687 0 4.322 2.346 8.095 5.83 10.116.97.563 1.579 1.428 1.606 2.298.015.48.35.89.818 1q.746.177 1.52.276a.763.763 0 0 0 .85-.77v-6.603a9.5 9.5 0 0 1-1.327-.243 1.062 1.062 0 1 1 .53-2.058A7.5 7.5 0 0 0 17 17c.644 0 1.267-.081 1.86-.234a1.062 1.062 0 1 1 .53 2.058 9.5 9.5 0 0 1-1.327.243v6.603c0 .462.392.83.85.77a15 15 0 0 0 1.52-.276c.468-.11.803-.52.818-1 .027-.87.636-1.735 1.607-2.298a11.68 11.68 0 0 0 5.83-10.116c0-6.455-5.233-11.687-11.688-11.687"/><path fill="#caff33" fill-rule="evenodd" d="M12.769 28.191c.109-.576.665-.955 1.242-.846q1.453.278 2.989.28 1.536-.002 2.99-.28a1.063 1.063 0 0 1 .396 2.088A18 18 0 0 1 17 29.75c-1.156 0-2.288-.109-3.386-.317a1.063 1.063 0 0 1-.845-1.242M13.818 31.654a1.06 1.06 0 0 1 1.168-.946 19.4 19.4 0 0 0 4.029 0 1.062 1.062 0 1 1 .22 2.113 21.5 21.5 0 0 1-4.47 0 1.06 1.06 0 0 1-.947-1.167" clip-rule="evenodd"/></svg>