<svg xmlns="http://www.w3.org/2000/svg" width="34" height="34" fill="none"><path fill="#caff33" d="M14.879 21.181c-.955 0-1.514-.537-1.514-1.501v-1.116a41.6 41.6 0 0 1-12.151-2.687v-2.273c5.1 2.26 10.215 3.058 15.779 3.058 5.578 0 10.692-.799 15.792-3.058v2.273a41.6 41.6 0 0 1-12.15 2.687v1.116c0 .964-.56 1.501-1.515 1.501zm-9.451 9.162H28.57c2.823 0 4.214-1.377 4.214-4.202V12.736c0-2.825-1.39-4.202-4.214-4.202H5.428c-2.81 0-4.214 1.377-4.214 4.202V26.14c0 2.825 1.405 4.202 4.214 4.202m4.65-20.61h2.114v-2.44c0-1.046.614-1.639 1.678-1.639h6.26c1.063 0 1.663.593 1.663 1.64v2.41h2.114V7.446c0-2.59-1.35-3.802-3.818-3.802h-6.192c-2.332 0-3.819 1.212-3.819 3.802z"/></svg>