<svg xmlns="http://www.w3.org/2000/svg" width="35" height="35" fill="none"><path fill="#caff33" fill-rule="evenodd" d="M15.821 9.337h2.854c-.056.645-.116 1.292-.168 1.937 1.11.08 2.192.437 3.165.966q-.631 1.586-1.268 3.172a4.54 4.54 0 0 0-2.972-1.068c-.27.007-.55.06-.774.214a.69.69 0 0 0-.287.434.62.62 0 0 0 .06.424c.087.14.241.224.395.276.315.112.655.12.984.154.774.095 1.551.228 2.283.505.567.217 1.11.542 1.499 1.018.367.438.58.991.661 1.558.095.655.067 1.335-.136 1.972a3.9 3.9 0 0 1-.778 1.39c-.724.84-1.789 1.344-2.881 1.474.035.69.077 1.376.115 2.066H15.87c.035-.683.08-1.366.112-2.049a6.7 6.7 0 0 1-2.118-.44 9.5 9.5 0 0 1-1.86-.964q.64-1.649 1.286-3.302c.487.41 1.005.792 1.572 1.082.61.312 1.285.512 1.971.519.326.003.662-.014.97-.126.19-.07.375-.193.459-.386.087-.203.08-.458-.053-.64a.9.9 0 0 0-.367-.266 2.6 2.6 0 0 0-.585-.151l-2.185-.448s-1.127-.445-1.583-.844a2.8 2.8 0 0 1-.693-.896c-.252-.511-.346-1.09-.34-1.656 0-.634.13-1.278.445-1.835.273-.497.69-.903 1.16-1.215.566-.375 1.2-.63 1.844-.837z" clip-rule="evenodd"/></svg>