<svg xmlns="http://www.w3.org/2000/svg" width="21" height="21" fill="none"><path fill="#1c1c1c" fill-rule="evenodd" d="M13.734 2.33a.78.78 0 0 0 .041 1.103l2.186 2.03H7.023a.78.78 0 0 0 0 1.56h8.938l-2.186 2.03a.78.78 0 0 0 1.062 1.143l3.642-3.382a.78.78 0 0 0 0-1.143l-3.642-3.382a.78.78 0 0 0-1.103.041m-6.66 8.324a.78.78 0 0 0-1.102-.041L2.33 13.994a.78.78 0 0 0 0 1.144l3.642 3.381a.78.78 0 1 0 1.062-1.143l-2.185-2.03h8.937a.78.78 0 0 0 0-1.56H4.849l2.185-2.03a.78.78 0 0 0 .04-1.102" clip-rule="evenodd"/></svg>