<svg xmlns="http://www.w3.org/2000/svg" width="35" height="35" fill="none"><path fill="#caff33" d="m22.186 24.549-.398-1.808a.35.35 0 0 0-.17-.239.34.34 0 0 0-.296-.022l-.057.022-.137.034q-.09.023-.21.051-.12.03-.279.057a7 7 0 0 1-1.125.108q-1.443 0-2.598-.778a4.58 4.58 0 0 1-1.7-2.11h4.4q.126.001.227-.085a.35.35 0 0 0 .125-.21l.273-1.273a.37.37 0 0 0-.068-.307.36.36 0 0 0-.284-.137H14.67a10 10 0 0 1 0-1.193h5.548q.307 0 .364-.296l.273-1.296a.33.33 0 0 0-.08-.295.34.34 0 0 0-.284-.137h-5.32a4.5 4.5 0 0 1 1.705-2q1.137-.728 2.569-.728.045-.023.335.011t.33.029a2 2 0 0 1 .295.034l.256.04.2.04q.085.016.13.027l.046.012q.147.044.272-.028a.33.33 0 0 0 .16-.222l.489-1.808a.38.38 0 0 0-.035-.273.43.43 0 0 0-.227-.17 9 9 0 0 0-2.206-.262q-2.546 0-4.553 1.456-2.006 1.454-2.768 3.842h-1.114a.35.35 0 0 0-.261.102.36.36 0 0 0-.103.262v1.296q0 .159.103.261a.35.35 0 0 0 .261.102h.762q-.034.546-.012 1.194h-.75a.35.35 0 0 0-.256.108.35.35 0 0 0-.108.256V19.5a.35.35 0 0 0 .108.256.35.35 0 0 0 .256.108h1.08q.717 2.512 2.706 3.996 1.989 1.485 4.65 1.484a8 8 0 0 0 .852-.046 11 11 0 0 0 1.012-.164q.136-.03.244-.063a2 2 0 0 1 .182-.05.6.6 0 0 0 .12-.04l.056-.012a.36.36 0 0 0 .194-.165.33.33 0 0 0 .034-.255"/></svg>