<svg xmlns="http://www.w3.org/2000/svg" width="24" height="24" fill="none"><path fill="#b3b3b3" d="M10.502 14.952c-.673 0-1.068-.38-1.068-1.06v-.788a29.3 29.3 0 0 1-8.578-1.897V9.603c3.6 1.595 7.21 2.159 11.139 2.159 3.937 0 7.547-.564 11.147-2.16v1.605a29.3 29.3 0 0 1-8.577 1.897v.788c0 .68-.395 1.06-1.069 1.06zm-6.67 6.467h16.336c1.992 0 2.974-.973 2.974-2.966V8.99c0-1.994-.982-2.966-2.974-2.966H3.83c-1.983 0-2.975.972-2.975 2.966v9.463c0 1.993.992 2.966 2.975 2.966m3.282-14.55h1.492V5.15c0-.74.433-1.158 1.184-1.158h4.419c.75 0 1.174.418 1.174 1.158V6.85h1.492V5.256c0-1.829-.953-2.685-2.695-2.685H9.81c-1.647 0-2.696.856-2.696 2.685z"/></svg>