<svg xmlns="http://www.w3.org/2000/svg" width="34" height="34" fill="none"><path fill="#caff33" d="M17 10.625A3.188 3.188 0 1 0 17 17a3.188 3.188 0 0 0 0-6.375"/><path fill="#caff33" fill-rule="evenodd" d="M2.125 6.906A2.656 2.656 0 0 1 4.781 4.25H29.22a2.656 2.656 0 0 1 2.656 2.656V20.72a2.656 2.656 0 0 1-2.656 2.656H4.78a2.656 2.656 0 0 1-2.656-2.656zm9.563 6.907a5.313 5.313 0 1 1 10.625 0 5.313 5.313 0 0 1-10.625 0m14.875-1.063c-.587 0-1.063.476-1.063 1.063v.01c0 .587.476 1.063 1.063 1.063h.01c.587 0 1.063-.476 1.063-1.063v-.01c0-.587-.476-1.063-1.063-1.063zM6.375 13.813c0-.587.476-1.063 1.063-1.063h.01c.587 0 1.063.476 1.063 1.063v.01c0 .587-.476 1.063-1.063 1.063h-.01a1.063 1.063 0 0 1-1.063-1.063z" clip-rule="evenodd"/><path fill="#caff33" d="M3.188 25.5a1.063 1.063 0 0 0 0 2.125c7.65 0 15.059 1.023 22.1 2.94 1.686.458 3.4-.791 3.4-2.579v-1.424c0-.586-.476-1.062-1.063-1.062z"/></svg>