<svg xmlns="http://www.w3.org/2000/svg" width="30" height="30" fill="none"><g fill="#caff33" clip-path="url(#a)"><path d="M24.658 14.019c0 .747.01 1.49-.006 2.238-.01.404.106.758.317 1.092.542.876 1.26 1.61 1.987 2.332.271.271.552.527.838.778.14.123.206.25.206.443-.01.821-.01 1.638-.005 2.46.005.684-.296 1.195-.924 1.48-.642.29-1.244.168-1.771-.28q-1.633-1.404-3.257-2.81c-.738-.639-1.47-1.288-2.223-1.908-.266-.222-.582-.384-.889-.551a2.8 2.8 0 0 0-1.465-.36c-.382.015-.773.02-1.154-.01-.557-.043-.954-.422-1.03-.944-.07-.457.207-.95.668-1.127.176-.068.372-.098.562-.098 1.446-.01 2.891-.005 4.342-.005.541 0 .737-.192.737-.728 0-1.083-.005-2.165 0-3.247a1.26 1.26 0 0 0-.457-1.019c-1.821-1.604-3.633-3.217-5.45-4.831-.486-.433-.542-1.073-.135-1.54.401-.468 1.059-.512 1.576-.118 2.323 1.771 4.642 3.542 6.976 5.304.386.29.567.644.562 1.111-.01.778-.005 1.555-.005 2.338M1.005 22.205c0-.442.005-.885-.005-1.328-.005-.172.065-.285.18-.403q1.136-1.145 2.249-2.313c.155-.162.27-.354.406-.531a2.48 2.48 0 0 0 .507-1.61c-.03-1.406.005-2.818-.015-4.23-.01-.556.19-.95.647-1.294 2.32-1.732 4.613-3.494 6.916-5.25a1.123 1.123 0 0 1 1.536.133c.401.453.366 1.102-.1 1.525-.708.64-1.426 1.265-2.139 1.9-1.129.998-2.258 2.002-3.387 3a1.1 1.1 0 0 0-.397.866c0 1.147-.005 2.293 0 3.444 0 .424.221.63.658.63 1.49.005 2.976 0 4.467.005.702 0 1.194.482 1.179 1.132a1.05 1.05 0 0 1-.883 1.018 4 4 0 0 1-.924.035c-1.029-.099-1.897.27-2.665.87-.783.61-1.515 1.29-2.263 1.934-1.1.945-2.193 1.9-3.297 2.839-.894.762-2.214.428-2.595-.66a1.4 1.4 0 0 1-.07-.432c-.01-.424-.005-.851-.005-1.28"/><path d="M15.212 15.037v.699h-1.26c0-.192-.004-.38 0-.566.006-.138-.034-.197-.18-.232a2.9 2.9 0 0 1-1.164-.55c.23-.3.451-.586.652-.852.381.143.728.31 1.094.394.266.059.562.02.838-.025.211-.034.347-.196.361-.418.02-.226-.1-.384-.3-.462-.342-.128-.698-.227-1.044-.34-.251-.084-.512-.157-.758-.26-.577-.242-.883-.67-.899-1.3-.015-.659.236-1.19.838-1.476.392-.186.728-.324.532-.87.427 0 .798-.005 1.175.01.04 0 .11.122.11.191.025.419.025.409.422.546.23.08.452.192.702.306-.21.32-.381.6-.572.865-.03.04-.15.035-.22.015-.332-.083-.653-.192-.984-.256-.13-.024-.281.015-.417.05-.2.054-.336.187-.351.403-.015.212.08.374.276.453.256.103.517.182.778.265.286.094.582.163.858.266.798.305 1.12.787 1.079 1.58-.04.727-.497 1.269-1.25 1.48-.09.03-.185.054-.316.084"/></g><defs><clipPath id="a"><path fill="#fff" d="M1 5h27v20H1z"/></clipPath></defs></svg>