<svg xmlns="http://www.w3.org/2000/svg" width="30" height="30" fill="none"><path fill="#caff33" fill-rule="evenodd" d="M3.75 2.813a.937.937 0 1 0 0 1.874v20.626h-.937a.937.937 0 1 0 0 1.875H18.75v-22.5a.937.937 0 1 0 0-1.875zm4.688 21.562v-2.812c0-.518.42-.938.937-.938h3.75c.518 0 .938.42.938.938v2.812c0 .518-.42.938-.938.938h-3.75a.937.937 0 0 1-.937-.938M7.5 8.438c0-.518.42-.938.938-.938h.937a.937.937 0 1 1 0 1.875h-.937a.937.937 0 0 1-.938-.937m.938 2.812a.937.937 0 1 0 0 1.875h.937a.937.937 0 1 0 0-1.875zM7.5 15.938c0-.518.42-.938.938-.938h.937a.937.937 0 1 1 0 1.875h-.937a.937.937 0 0 1-.938-.937M13.125 7.5a.937.937 0 1 0 0 1.875h.938a.937.937 0 1 0 0-1.875zm-.937 4.688c0-.518.42-.938.937-.938h.938a.937.937 0 1 1 0 1.875h-.938a.937.937 0 0 1-.937-.937M13.125 15a.937.937 0 1 0 0 1.875h.938a.937.937 0 1 0 0-1.875zM20.625 8.438v18.75h6.563a.937.937 0 1 0 0-1.875h-.938v-15a.937.937 0 1 0 0-1.876zm1.875 5.624c0-.517.42-.937.938-.937h.009c.518 0 .937.42.937.938v.009c0 .518-.42.937-.937.937h-.01a.94.94 0 0 1-.937-.937zm.938 2.813a.937.937 0 0 0-.938.938v.009c0 .518.42.937.938.937h.009c.518 0 .937-.42.937-.937v-.01a.94.94 0 0 0-.937-.937zm-.938 4.688c0-.518.42-.938.938-.938h.009c.518 0 .937.42.937.938v.009c0 .518-.42.937-.937.937h-.01a.94.94 0 0 1-.937-.937z" clip-rule="evenodd"/></svg>