<svg xmlns="http://www.w3.org/2000/svg" width="60" height="60" fill="none"><path fill="url(#a)" stroke="#caff33" d="M21.269 47.824a2.5 2.5 0 0 1-2.5 2.5H7.5a2.5 2.5 0 0 1-2.5-2.5v-9.108q.002-4.885 1.777-10.125v-.003a43.7 43.7 0 0 1 4.934-9.969v-.002q2.699-4.039 5.955-7.008c.833-.76 2.062-.808 2.977-.199l6.026 4.016c1.14.76 1.445 2.282.75 3.44a59 59 0 0 0-4.171 8.38v.001c-1.351 3.418-2.014 7.201-1.979 11.356zm26.88 0a2.5 2.5 0 0 1-2.5 2.5H34.38a2.5 2.5 0 0 1-2.5-2.5v-9.108q.002-4.885 1.776-10.125v-.003a43.7 43.7 0 0 1 4.934-9.969l.001-.002q2.698-4.039 5.953-7.008c.834-.76 2.064-.808 2.979-.199l6.026 4.016c1.14.76 1.445 2.282.75 3.44a59 59 0 0 0-4.172 8.38l.001.001q-2.03 5.125-1.98 11.356z"/><defs><linearGradient id="a" x1="30.206" x2="30.206" y1="11" y2="49.824" gradientUnits="userSpaceOnUse"><stop stop-color="#caff33"/><stop offset="1" stop-color="#191919"/></linearGradient></defs></svg>