<svg xmlns="http://www.w3.org/2000/svg" width="34" height="34" fill="none"><path fill="#caff33" d="M16.496 2.252c.315-.17.693-.17 1.008 0L31.316 9.69a1.062 1.062 0 0 1 0 1.87l-13.812 7.438c-.315.17-.693.17-1.008 0L2.684 11.56a1.062 1.062 0 0 1 0-1.87z"/><path fill="#caff33" d="m4.625 15.02 10.864 5.849a3.19 3.19 0 0 0 3.022 0l10.864-5.85 1.941 1.045a1.062 1.062 0 0 1 0 1.872l-13.812 7.437c-.315.17-.693.17-1.008 0L2.684 17.936a1.062 1.062 0 0 1 0-1.872z"/><path fill="#caff33" d="m15.489 27.244-10.864-5.85-1.941 1.046a1.062 1.062 0 0 0 0 1.87l13.812 7.438c.315.17.693.17 1.008 0l13.812-7.437a1.062 1.062 0 0 0 0-1.872l-1.941-1.045-10.864 5.85a3.19 3.19 0 0 1-3.022 0"/></svg>