<svg xmlns="http://www.w3.org/2000/svg" width="34" height="34" fill="none"><path fill="#caff33" fill-rule="evenodd" d="M12.75 6.375c.474 0 .891.314 1.022.77l1.152 4.033a5.31 5.31 0 0 0 3.648 3.648l4.032 1.152a1.062 1.062 0 0 1 0 2.044l-4.032 1.152a5.31 5.31 0 0 0-3.648 3.648l-1.152 4.032a1.062 1.062 0 0 1-2.044 0l-1.152-4.032a5.31 5.31 0 0 0-3.648-3.648l-4.032-1.152a1.062 1.062 0 0 1 0-2.044l4.032-1.152a5.31 5.31 0 0 0 3.648-3.648l1.152-4.032c.13-.457.548-.771 1.022-.771M25.5 2.125c.488 0 .913.332 1.03.805l.367 1.467a3.72 3.72 0 0 0 2.706 2.706l1.467.366a1.062 1.062 0 0 1 0 2.062l-1.467.367a3.72 3.72 0 0 0-2.706 2.705l-.366 1.467a1.063 1.063 0 0 1-2.062 0l-.367-1.467a3.72 3.72 0 0 0-2.705-2.705L19.93 9.53a1.062 1.062 0 0 1 0-2.062l1.467-.367a3.72 3.72 0 0 0 2.706-2.705l.366-1.467a1.06 1.06 0 0 1 1.031-.805M23.375 21.25c.457 0 .863.293 1.008.727l.559 1.675c.211.635.709 1.133 1.343 1.344l1.676.559a1.062 1.062 0 0 1 0 2.015l-1.675.559a2.13 2.13 0 0 0-1.344 1.344l-.559 1.675a1.062 1.062 0 0 1-2.016 0l-.559-1.675a2.13 2.13 0 0 0-1.343-1.344l-1.676-.559a1.062 1.062 0 0 1 0-2.015l1.675-.559a2.13 2.13 0 0 0 1.345-1.344l.558-1.675c.145-.434.55-.727 1.008-.727" clip-rule="evenodd"/></svg>