<svg xmlns="http://www.w3.org/2000/svg" width="30" height="30" fill="none"><path fill="#caff33" fill-rule="evenodd" d="M2.813 2.813a.937.937 0 1 0 0 1.874h.937v13.125a3.75 3.75 0 0 0 3.75 3.75h1.512l-1.464 4.391a.938.938 0 0 0 1.779.594l.411-1.235h10.524l.411 1.235a.938.938 0 0 0 1.779-.594l-1.464-4.39H22.5a3.75 3.75 0 0 0 3.75-3.75V4.688h.938a.937.937 0 1 0 0-1.875zm7.55 20.625.625-1.875h8.024l.625 1.875zm9.325-15a.937.937 0 1 0-1.875 0v7.5a.937.937 0 1 0 1.875 0zm-3.75 2.812a.937.937 0 1 0-1.876 0v4.688a.937.937 0 1 0 1.876 0zm-3.75 2.813a.937.937 0 1 0-1.876 0v1.874a.937.937 0 1 0 1.876 0z" clip-rule="evenodd"/></svg>