<svg xmlns="http://www.w3.org/2000/svg" width="156" height="41" fill="none"><path fill="#caff33" d="m10 20 10-10 10 10-10 10z"/><path fill="#caff33" d="M36.667 13.333 30 20V10H20l6.667-6.667h10zM36.667 26.667 30 20v10H20l6.667 6.667h10zM3.333 26.667 10 20v10h10l-6.667 6.667h-10zM3.333 13.333 10 20V10h10l-6.667-6.667h-10z"/><path fill="#fff" d="m59.354 11.333-6.145 10.851v7.148h-2.897v-7.148l-6.145-10.85h3.3l4.306 7.97 4.281-7.97zM64.508 29.667q-2.769 0-4.71-1.955-1.939-1.953-1.939-4.808t1.94-4.808q1.939-1.954 4.71-1.954 2.795 0 4.709 1.954 1.94 1.953 1.94 4.808t-1.94 4.808q-1.914 1.955-4.71 1.955m-2.795-3.857q1.133 1.157 2.795 1.157 1.663 0 2.796-1.157t1.133-2.906T67.304 20q-1.133-1.158-2.796-1.158t-2.795 1.157-1.133 2.906 1.133 2.906M82.104 16.476h2.72v12.856h-2.72v-1.645q-1.234 1.98-3.903 1.98-2.166 0-3.501-1.415-1.335-1.414-1.335-3.882v-7.894h2.72v7.61q0 1.44.756 2.212.755.771 2.065.772 1.435 0 2.317-.9.88-.927.881-2.803zM90.725 18.636q1.032-2.392 3.878-2.392v3.009q-1.56-.104-2.72.771-1.158.849-1.158 2.829v6.48h-2.72V16.475h2.72zM107.166 19.999a4.6 4.6 0 0 1 1.813 1.697q.654 1.079.655 2.494 0 2.211-1.537 3.677-1.536 1.465-3.752 1.465h-7.556V11.333h7.002q2.166 0 3.652 1.44 1.51 1.414 1.511 3.549 0 2.34-1.788 3.677m-3.375-5.889h-4.105v4.731h4.105q.957 0 1.612-.668.654-.695.654-1.697t-.654-1.671a2.13 2.13 0 0 0-1.612-.695m.554 12.445q1.007 0 1.687-.72.705-.745.705-1.8 0-1.053-.705-1.774a2.19 2.19 0 0 0-1.687-.745h-4.66v5.04zM122.081 16.476h2.72v12.856h-2.72v-1.851q-1.536 2.186-4.407 2.186-2.594 0-4.433-1.955-1.838-1.98-1.838-4.808 0-2.855 1.838-4.808 1.838-1.954 4.433-1.954 2.871 0 4.407 2.16zm-6.825 9.385q1.133 1.157 2.846 1.157 1.712 0 2.846-1.157 1.133-1.182 1.133-2.957t-1.133-2.931q-1.133-1.183-2.846-1.183t-2.846 1.183q-1.133 1.157-1.133 2.931t1.133 2.957M134.595 16.142q2.166 0 3.501 1.414 1.335 1.415 1.335 3.882v7.894h-2.72v-7.61q0-1.44-.756-2.212-.755-.771-2.065-.771-1.435 0-2.317.925-.881.9-.881 2.777v6.891h-2.72V16.476h2.72v1.646q1.233-1.98 3.903-1.98M155.834 29.332h-3.451l-6.951-8.562v8.562h-2.896V11.333h2.896v8.074l6.699-8.074h3.451l-7.128 8.768z"/></svg>