<svg xmlns="http://www.w3.org/2000/svg"><symbol viewBox="0 0 29.750664 29.750664" id="addition"><path fill="#caff33" d="M8.5 4.25A4.25 4.25 0 0 0 4.25 8.5v3.188a4.25 4.25 0 0 0 4.25 4.25h3.188a4.25 4.25 0 0 0 4.25-4.25V8.5a4.25 4.25 0 0 0-4.25-4.25zM22.313 4.25a4.25 4.25 0 0 0-4.25 4.25v3.188a4.25 4.25 0 0 0 4.25 4.25H25.5a4.25 4.25 0 0 0 4.25-4.25V8.5a4.25 4.25 0 0 0-4.25-4.25zM8.5 18.063a4.25 4.25 0 0 0-4.25 4.25V25.5a4.25 4.25 0 0 0 4.25 4.25h3.188a4.25 4.25 0 0 0 4.25-4.25v-3.187a4.25 4.25 0 0 0-4.25-4.25zM24.969 19.125a1.063 1.063 0 0 0-2.125 0v3.719h-3.719a1.062 1.062 0 1 0 0 2.125h3.719v3.718a1.062 1.062 0 1 0 2.125 0V24.97h3.718a1.063 1.063 0 0 0 0-2.125H24.97z"/></symbol><symbol viewBox="0 0 26.540003 27.499632" id="apple"><path fill="#caff33" d="M26.053 21.431a15 15 0 0 1-1.478 2.658q-1.168 1.663-1.905 2.302-1.14 1.049-2.448 1.078-.94.002-2.26-.54-1.324-.539-2.435-.538-1.165-.001-2.503.538-1.339.542-2.163.569-1.255.053-2.503-1.107-.797-.695-1.992-2.383-1.281-1.803-2.106-4.184-.885-2.575-.885-4.987 0-2.766 1.196-4.765A7 7 0 0 1 7.076 7.54a6.74 6.74 0 0 1 3.386-.956c.664 0 1.536.206 2.619.61q1.62.609 2.077.61c.227 0 .998-.24 2.304-.719q1.85-.665 3.13-.556 3.473.279 5.208 2.742-3.103 1.882-3.072 5.263c.019 1.754.655 3.215 1.906 4.374q.849.806 1.905 1.25-.229.663-.486 1.274M20.747.551q-.001 2.064-1.504 3.847c-1.209 1.413-2.67 2.23-4.256 2.101a4 4 0 0 1-.032-.521c0-1.32.575-2.733 1.596-3.889q.765-.877 1.943-1.459Q19.671.056 20.718 0q.03.277.029.55"/></symbol><symbol viewBox="0 0 27.18806 27.188002" id="bank"><path fill="#caff33" d="M14.48 2.97a.94.94 0 0 1 1.04 0l11.25 7.5a.937.937 0 1 1-1.04 1.56L15 4.877 4.27 12.03a.937.937 0 1 1-1.04-1.56z"/><path fill="#caff33" fill-rule="evenodd" d="M25.313 12.916v12.397h.937a.937.937 0 1 1 0 1.875H3.75a.937.937 0 1 1 0-1.875h.938V12.916c0-.462.336-.855.792-.927A61.4 61.4 0 0 1 15 11.25c3.238 0 6.418.253 9.52.74a.94.94 0 0 1 .793.926m-9.375 3.021a.937.937 0 1 0-1.876 0v8.438a.937.937 0 1 0 1.876 0zm3.75-.937c.517 0 .937.42.937.938v8.437a.937.937 0 1 1-1.875 0v-8.437c0-.518.42-.938.938-.938m-8.438.938a.937.937 0 1 0-1.875 0v8.437a.937.937 0 1 0 1.875 0z" clip-rule="evenodd"/><path fill="#caff33" d="M15 9.844a1.406 1.406 0 1 0 0-2.813 1.406 1.406 0 0 0 0 2.813"/></symbol><symbol viewBox="0 0 22.592865 24.235998" id="bitcoin"><path fill="#caff33" fill-rule="evenodd" d="M22.564 15.326c.233-1.565-.959-2.407-2.588-2.968l.529-2.12-1.292-.322-.514 2.065a53 53 0 0 0-1.034-.244l.518-2.078-1.29-.322-.529 2.12q-.421-.095-.824-.194l.002-.006-1.78-.445-.344 1.379s.958.22.938.233c.523.13.617.476.601.75l-.602 2.416q.056.014.134.043l-.136-.034-.844 3.384c-.064.16-.226.397-.592.307.013.019-.938-.234-.938-.234l-.64 1.477 1.68.42a58 58 0 0 1 .92.237l-.535 2.145 1.29.321.529-2.121q.526.142 1.028.266l-.527 2.112 1.29.322.535-2.14c2.2.416 3.856.248 4.552-1.742.561-1.603-.028-2.528-1.186-3.131.843-.195 1.479-.75 1.648-1.896m-2.95 4.136c-.366 1.47-2.67.862-3.722.584l-.25-.065.708-2.842q.133.032.317.074c1.09.244 3.321.745 2.947 2.249m-2.728-3.568c.878.235 2.793.746 3.127-.59.34-1.368-1.521-1.78-2.43-1.981l-.267-.061-.642 2.577z" clip-rule="evenodd"/></symbol><symbol viewBox="0 0 27.186666 25.796001" id="book"><path fill="#caff33" d="M14.063 5.666A12.13 12.13 0 0 0 7.5 3.75c-1.423 0-2.79.244-4.062.694a.94.94 0 0 0-.626.884V23.14a.937.937 0 0 0 1.25.884c1.074-.38 2.231-.587 3.438-.587 2.494 0 4.78.885 6.563 2.358zM15.938 25.795a10.27 10.27 0 0 1 6.562-2.358c1.207 0 2.364.207 3.438.587a.938.938 0 0 0 1.25-.884V5.328a.94.94 0 0 0-.626-.884A12.2 12.2 0 0 0 22.5 3.75c-2.416 0-4.668.703-6.562 1.916z"/></symbol><symbol viewBox="0 0 28.688004 32.937782" id="bulb"><path fill="#caff33" d="M17 1.063c-6.455 0-11.687 5.232-11.687 11.687 0 4.322 2.346 8.095 5.83 10.116.97.563 1.579 1.428 1.606 2.298.015.48.35.89.818 1q.746.177 1.52.276a.763.763 0 0 0 .85-.77v-6.603a9.5 9.5 0 0 1-1.327-.243 1.062 1.062 0 1 1 .53-2.058A7.5 7.5 0 0 0 17 17c.644 0 1.267-.081 1.86-.234a1.062 1.062 0 1 1 .53 2.058 9.5 9.5 0 0 1-1.327.243v6.603c0 .462.392.83.85.77a15 15 0 0 0 1.52-.276c.468-.11.803-.52.818-1 .027-.87.636-1.735 1.607-2.298a11.68 11.68 0 0 0 5.83-10.116c0-6.455-5.233-11.687-11.688-11.687"/><path fill="#caff33" fill-rule="evenodd" d="M12.769 28.191c.109-.576.665-.955 1.242-.846q1.453.278 2.989.28 1.536-.002 2.99-.28a1.063 1.063 0 0 1 .396 2.088A18 18 0 0 1 17 29.75c-1.156 0-2.288-.109-3.386-.317a1.063 1.063 0 0 1-.845-1.242M13.818 31.654a1.06 1.06 0 0 1 1.168-.946 19.4 19.4 0 0 0 4.029 0 1.062 1.062 0 1 1 .22 2.113 21.5 21.5 0 0 1-4.47 0 1.06 1.06 0 0 1-.947-1.167" clip-rule="evenodd"/></symbol><symbol viewBox="0 0 24.500666 21.001333" id="burger"><path fill="#333" fill-rule="evenodd" d="M3.5 7.875c0-.483.392-.875.875-.875h19.25a.875.875 0 0 1 0 1.75H4.375a.875.875 0 0 1-.875-.875M3.5 14c0-.483.392-.875.875-.875h19.25a.875.875 0 0 1 0 1.75H4.375A.875.875 0 0 1 3.5 14m9.625 6.125c0-.483.392-.875.875-.875h9.625a.875.875 0 0 1 0 1.75H14a.875.875 0 0 1-.875-.875" clip-rule="evenodd"/></symbol><symbol viewBox="0 0 32.784 30.342667" id="case"><path fill="#caff33" d="M14.879 21.181c-.955 0-1.514-.537-1.514-1.501v-1.116a41.6 41.6 0 0 1-12.151-2.687v-2.273c5.1 2.26 10.215 3.058 15.779 3.058 5.578 0 10.692-.799 15.792-3.058v2.273a41.6 41.6 0 0 1-12.15 2.687v1.116c0 .964-.56 1.501-1.515 1.501zm-9.451 9.162H28.57c2.823 0 4.214-1.377 4.214-4.202V12.736c0-2.825-1.39-4.202-4.214-4.202H5.428c-2.81 0-4.214 1.377-4.214 4.202V26.14c0 2.825 1.405 4.202 4.214 4.202m4.65-20.61h2.114v-2.44c0-1.046.614-1.639 1.678-1.639h6.26c1.063 0 1.663.593 1.663 1.64v2.41h2.114V7.446c0-2.59-1.35-3.802-3.818-3.802h-6.192c-2.332 0-3.819 1.212-3.819 3.802z"/></symbol><symbol viewBox="0 0 21.750668 21.750668" id="check_mark"><path fill="#caff33" fill-rule="evenodd" d="M8.603 3.799A4.5 4.5 0 0 1 12 2.25c1.357 0 2.573.6 3.397 1.549a4.5 4.5 0 0 1 3.498 1.307 4.5 4.5 0 0 1 1.307 3.497A4.5 4.5 0 0 1 21.75 12a4.5 4.5 0 0 1-1.549 3.397 4.5 4.5 0 0 1-1.307 3.497 4.5 4.5 0 0 1-3.497 1.307A4.5 4.5 0 0 1 12 21.75a4.5 4.5 0 0 1-3.397-1.549 4.5 4.5 0 0 1-3.498-1.306 4.5 4.5 0 0 1-1.307-3.498A4.5 4.5 0 0 1 2.25 12c0-1.357.6-2.573 1.549-3.397a4.5 4.5 0 0 1 1.307-3.497 4.5 4.5 0 0 1 3.497-1.307m7.007 6.387a.75.75 0 1 0-1.22-.872l-3.236 4.53L9.53 12.22a.75.75 0 0 0-1.06 1.06l2.25 2.25a.75.75 0 0 0 1.14-.094z" clip-rule="evenodd"/></symbol><symbol viewBox="0 0 31.876001 29.750668" id="container"><path fill="#caff33" d="M4.781 4.25a2.656 2.656 0 0 0-2.656 2.656V7.97a2.656 2.656 0 0 0 2.656 2.656H29.22a2.656 2.656 0 0 0 2.656-2.656V6.906a2.656 2.656 0 0 0-2.656-2.656z"/><path fill="#caff33" fill-rule="evenodd" d="m4.373 12.75.765 13a4.25 4.25 0 0 0 4.242 4h15.24a4.25 4.25 0 0 0 4.242-4l.765-13zM17 14.875c.587 0 1.063.476 1.063 1.063v6.997l2.436-2.436A1.063 1.063 0 0 1 22 22l-4.25 4.25a1.063 1.063 0 0 1-1.502 0l-4.25-4.25A1.063 1.063 0 0 1 13.5 20.5l2.437 2.436v-6.997c0-.587.475-1.063 1.062-1.063" clip-rule="evenodd"/></symbol><symbol viewBox="0 0 16.256666 16.257334" id="cross"><path fill="#1a1a1a" fill-rule="evenodd" d="M10.404 4.552c.36 0 .65.291.65.65v4.552h4.553a.65.65 0 0 1 0 1.3h-4.552v4.553a.65.65 0 1 1-1.301 0v-4.552H5.202a.65.65 0 0 1 0-1.3h4.552V5.201c0-.359.291-.65.65-.65" clip-rule="evenodd"/></symbol><symbol viewBox="0 0 27.188002 27.188002" id="dollar"><path fill="#caff33" d="M13.08 10.933c.284-.226.62-.39.982-.492v3.493a2.8 2.8 0 0 1-.982-.492c-.493-.39-.683-.85-.683-1.255 0-.403.19-.863.682-1.254M15.938 19.577v-3.53c.434.107.83.285 1.151.527.533.4.724.857.724 1.238 0 .382-.19.84-.724 1.24-.322.24-.717.42-1.151.525"/><path fill="#caff33" fill-rule="evenodd" d="M15 2.813C8.269 2.813 2.813 8.269 2.813 15S8.269 27.188 15 27.188 27.188 21.73 27.188 15 21.73 2.813 15 2.813m.938 4.687a.937.937 0 1 0-1.876 0v1.02a4.8 4.8 0 0 0-2.149.945c-.89.707-1.391 1.687-1.391 2.723s.5 2.015 1.391 2.722a4.8 4.8 0 0 0 2.15.945v3.722a3.2 3.2 0 0 1-1.152-.526l-1.098-.824a.938.938 0 0 0-1.126 1.5l1.1.824c.666.5 1.46.806 2.275.937V22.5a.937.937 0 1 0 1.876 0v-1.012c.815-.131 1.61-.437 2.276-.937.931-.698 1.474-1.68 1.474-2.738s-.543-2.04-1.474-2.74c-.666-.5-1.461-.805-2.276-.936v-3.696c.361.102.698.266.982.492l.519.412a.937.937 0 1 0 1.166-1.468l-.519-.412a4.8 4.8 0 0 0-2.148-.945z" clip-rule="evenodd"/></symbol><symbol viewBox="0 0 22.306753 25.828" id="dollar_currency"><path fill="#caff33" fill-rule="evenodd" d="M15.821 9.337h2.854c-.056.645-.116 1.292-.168 1.937 1.11.08 2.192.437 3.165.966q-.631 1.586-1.268 3.172a4.54 4.54 0 0 0-2.972-1.068c-.27.007-.55.06-.774.214a.69.69 0 0 0-.287.434.62.62 0 0 0 .06.424c.087.14.241.224.395.276.315.112.655.12.984.154.774.095 1.551.228 2.283.505.567.217 1.11.542 1.499 1.018.367.438.58.991.661 1.558.095.655.067 1.335-.136 1.972a3.9 3.9 0 0 1-.778 1.39c-.724.84-1.789 1.344-2.881 1.474.035.69.077 1.376.115 2.066H15.87c.035-.683.08-1.366.112-2.049a6.7 6.7 0 0 1-2.118-.44 9.5 9.5 0 0 1-1.86-.964q.64-1.649 1.286-3.302c.487.41 1.005.792 1.572 1.082.61.312 1.285.512 1.971.519.326.003.662-.014.97-.126.19-.07.375-.193.459-.386.087-.203.08-.458-.053-.64a.9.9 0 0 0-.367-.266 2.6 2.6 0 0 0-.585-.151l-2.185-.448s-1.127-.445-1.583-.844a2.8 2.8 0 0 1-.693-.896c-.252-.511-.346-1.09-.34-1.656 0-.634.13-1.278.445-1.835.273-.497.69-.903 1.16-1.215.566-.375 1.2-.63 1.844-.837z" clip-rule="evenodd"/></symbol><symbol viewBox="0 0 18.726316 18.728874" id="double_headed_arrow"><path fill="#1c1c1c" fill-rule="evenodd" d="M13.734 2.33a.78.78 0 0 0 .041 1.103l2.186 2.03H7.023a.78.78 0 0 0 0 1.56h8.938l-2.186 2.03a.78.78 0 0 0 1.062 1.143l3.642-3.382a.78.78 0 0 0 0-1.143l-3.642-3.382a.78.78 0 0 0-1.103.041m-6.66 8.324a.78.78 0 0 0-1.102-.041L2.33 13.994a.78.78 0 0 0 0 1.144l3.642 3.381a.78.78 0 1 0 1.062-1.143l-2.185-2.03h8.937a.78.78 0 0 0 0-1.56H4.849l2.185-2.03a.78.78 0 0 0 .04-1.102" clip-rule="evenodd"/></symbol><symbol viewBox="0 0 16.5 13.750667" id="down_arrow"><path stroke="#fff" stroke-width="2" d="m16.5 8.25-5.5 5.5-5.5-5.5"/></symbol><symbol viewBox="0 0 22.5 20.250666" id="email"><path fill="#caff33" d="M1.5 8.67v8.58a3 3 0 0 0 3 3h15a3 3 0 0 0 3-3V8.67l-8.928 5.493a3 3 0 0 1-3.144 0z"/><path fill="#caff33" d="M22.5 6.908V6.75a3 3 0 0 0-3-3h-15a3 3 0 0 0-3 3v.158l9.714 5.978a1.5 1.5 0 0 0 1.572 0z"/></symbol><symbol viewBox="0 0 22.162666 25.893337" id="ethereum"><g fill="#caff33" opacity=".8"><path d="m17.283 9.337-.107.363v10.508l.107.106 4.878-2.883z"/><path d="m17.283 9.337-4.878 8.094 4.878 2.883V9.337M17.283 21.901l-.06.073v3.744l.06.175 4.88-6.874z"/><path d="M17.283 25.893V21.9l-4.878-2.882zM17.283 20.314l4.878-2.883-4.878-2.217z"/><path d="m12.405 17.43 4.878 2.884v-5.1z"/></g></symbol><symbol viewBox="0 0 22.200777 25.344002" id="euro_currency"><path fill="#caff33" d="m22.186 24.549-.398-1.808a.35.35 0 0 0-.17-.239.34.34 0 0 0-.296-.022l-.057.022-.137.034q-.09.023-.21.051-.12.03-.279.057a7 7 0 0 1-1.125.108q-1.443 0-2.598-.778a4.58 4.58 0 0 1-1.7-2.11h4.4q.126.001.227-.085a.35.35 0 0 0 .125-.21l.273-1.273a.37.37 0 0 0-.068-.307.36.36 0 0 0-.284-.137H14.67a10 10 0 0 1 0-1.193h5.548q.307 0 .364-.296l.273-1.296a.33.33 0 0 0-.08-.295.34.34 0 0 0-.284-.137h-5.32a4.5 4.5 0 0 1 1.705-2q1.137-.728 2.569-.728.045-.023.335.011t.33.029a2 2 0 0 1 .295.034l.256.04.2.04q.085.016.13.027l.046.012q.147.044.272-.028a.33.33 0 0 0 .16-.222l.489-1.808a.38.38 0 0 0-.035-.273.43.43 0 0 0-.227-.17 9 9 0 0 0-2.206-.262q-2.546 0-4.553 1.456-2.006 1.454-2.768 3.842h-1.114a.35.35 0 0 0-.261.102.36.36 0 0 0-.103.262v1.296q0 .159.103.261a.35.35 0 0 0 .261.102h.762q-.034.546-.012 1.194h-.75a.35.35 0 0 0-.256.108.35.35 0 0 0-.108.256V19.5a.35.35 0 0 0 .108.256.35.35 0 0 0 .256.108h1.08q.717 2.512 2.706 3.996 1.989 1.485 4.65 1.484a8 8 0 0 0 .852-.046 11 11 0 0 0 1.012-.164q.136-.03.244-.063a2 2 0 0 1 .182-.05.6.6 0 0 0 .12-.04l.056-.012a.36.36 0 0 0 .194-.165.33.33 0 0 0 .034-.255"/></symbol><symbol viewBox="0 0 22.765999 20.250668" id="eye"><path fill="#59595a" d="M12.001 15a3 3 0 1 0 0-6 3 3 0 0 0 0 6"/><path fill="#59595a" fill-rule="evenodd" d="M1.324 11.447C2.812 6.976 7.03 3.75 12.002 3.75c4.97 0 9.185 3.223 10.675 7.69.12.362.12.752 0 1.113C21.19 17.024 16.972 20.25 12 20.25c-4.97 0-9.186-3.223-10.675-7.69a1.76 1.76 0 0 1 0-1.113M17.251 12a5.25 5.25 0 1 1-10.5 0 5.25 5.25 0 0 1 10.5 0" clip-rule="evenodd"/></symbol><symbol viewBox="0 0 24 23.854668" id="facebook"><g clip-path="url(#a)"><path fill="#262626" d="M24 12c0-6.627-5.373-12-12-12S0 5.373 0 12c0 5.99 4.388 10.954 10.125 11.854V15.47H7.078V12h3.047V9.356c0-3.007 1.792-4.668 4.533-4.668 1.312 0 2.686.234 2.686.234v2.953H15.83c-1.491 0-1.956.925-1.956 1.875V12h3.328l-.532 3.469h-2.796v8.385C19.612 22.954 24 17.99 24 12"/></g><defs><clipPath id="a"><path fill="#fff" d="M0 0h24v24H0z"/></clipPath></defs></symbol><symbol viewBox="0 0 29.709333 30.001335" id="google"><g fill="#caff33" clip-path="url(#a)"><path d="M29.708 15.346c0-1.02-.082-2.045-.259-3.048H15.301v5.776h8.102a6.94 6.94 0 0 1-2.998 4.558v3.748h4.833c2.839-2.613 4.47-6.47 4.47-11.034"/><path d="M15.299 30.001c4.046 0 7.457-1.328 9.943-3.621l-4.834-3.748c-1.345.915-3.08 1.433-5.104 1.433-3.913 0-7.23-2.64-8.421-6.19H1.895v3.864a15 15 0 0 0 13.404 8.262"/><path d="M6.879 17.875a9 9 0 0 1 0-5.743V8.27H1.896a15.01 15.01 0 0 0 0 13.47z"/><path d="M15.299 5.937a8.15 8.15 0 0 1 5.754 2.249l4.283-4.283A14.42 14.42 0 0 0 15.299.001 15 15 0 0 0 1.895 8.269l4.982 3.863c1.185-3.555 4.509-6.195 8.422-6.195"/></g><defs><clipPath id="a"><path fill="#fff" d="M0 0h30v30H0z"/></clipPath></defs></symbol><symbol viewBox="0 0 23.14 21.418669" id="gray_case"><path fill="#b3b3b3" d="M10.502 14.952c-.673 0-1.068-.38-1.068-1.06v-.788a29.3 29.3 0 0 1-8.578-1.897V9.603c3.6 1.595 7.21 2.159 11.139 2.159 3.937 0 7.547-.564 11.147-2.16v1.605a29.3 29.3 0 0 1-8.577 1.897v.788c0 .68-.395 1.06-1.069 1.06zm-6.67 6.467h16.336c1.992 0 2.974-.973 2.974-2.966V8.99c0-1.994-.982-2.966-2.974-2.966H3.83c-1.983 0-2.975.972-2.975 2.966v9.463c0 1.993.992 2.966 2.975 2.966m3.282-14.55h1.492V5.15c0-.74.433-1.158 1.184-1.158h4.419c.75 0 1.174.418 1.174 1.158V6.85h1.492V5.256c0-1.829-.953-2.685-2.695-2.685H9.81c-1.647 0-2.696.856-2.696 2.685z"/></symbol><symbol viewBox="0 0 26.208 25.5" id="left_arrow"><path stroke="#caff33" stroke-linecap="round" stroke-linejoin="round" stroke-width="2" d="M26.208 17H8.5m8.5 8.5L8.5 17 17 8.5"/></symbol><symbol viewBox="0 0 24 24" id="linkedin"><g clip-path="url(#a)"><path fill="#262626" d="M22.223 0H1.772C.792 0 0 .773 0 1.73v20.536C0 23.222.792 24 1.772 24h20.451c.98 0 1.777-.778 1.777-1.73V1.73C24 .773 23.203 0 22.223 0M7.12 20.452H3.558V8.995H7.12zM5.34 7.434a2.064 2.064 0 1 1 0-4.125 2.063 2.063 0 0 1 0 4.125m15.112 13.018h-3.558v-5.57c0-1.326-.024-3.037-1.852-3.037-1.851 0-2.133 1.449-2.133 2.944v5.663H9.356V8.995h3.413v1.566h.047c.473-.9 1.636-1.852 3.365-1.852 3.605 0 4.27 2.372 4.27 5.457z"/></g><defs><clipPath id="a"><path fill="#fff" d="M0 0h24v24H0z"/></clipPath></defs></symbol><symbol viewBox="0 0 31.876001 30.66039" id="money"><path fill="#caff33" d="M17 10.625A3.188 3.188 0 1 0 17 17a3.188 3.188 0 0 0 0-6.375"/><path fill="#caff33" fill-rule="evenodd" d="M2.125 6.906A2.656 2.656 0 0 1 4.781 4.25H29.22a2.656 2.656 0 0 1 2.656 2.656V20.72a2.656 2.656 0 0 1-2.656 2.656H4.78a2.656 2.656 0 0 1-2.656-2.656zm9.563 6.907a5.313 5.313 0 1 1 10.625 0 5.313 5.313 0 0 1-10.625 0m14.875-1.063c-.587 0-1.063.476-1.063 1.063v.01c0 .587.476 1.063 1.063 1.063h.01c.587 0 1.063-.476 1.063-1.063v-.01c0-.587-.476-1.063-1.063-1.063zM6.375 13.813c0-.587.476-1.063 1.063-1.063h.01c.587 0 1.063.476 1.063 1.063v.01c0 .587-.476 1.063-1.063 1.063h-.01a1.063 1.063 0 0 1-1.063-1.063z" clip-rule="evenodd"/><path fill="#caff33" d="M3.188 25.5a1.063 1.063 0 0 0 0 2.125c7.65 0 15.059 1.023 22.1 2.94 1.686.458 3.4-.791 3.4-2.579v-1.424c0-.586-.476-1.062-1.063-1.062z"/></symbol><symbol viewBox="0 0 28.000002 24.99668" id="money_in_hands"><g fill="#caff33" clip-path="url(#a)"><path d="M24.658 14.019c0 .747.01 1.49-.006 2.238-.01.404.106.758.317 1.092.542.876 1.26 1.61 1.987 2.332.271.271.552.527.838.778.14.123.206.25.206.443-.01.821-.01 1.638-.005 2.46.005.684-.296 1.195-.924 1.48-.642.29-1.244.168-1.771-.28q-1.633-1.404-3.257-2.81c-.738-.639-1.47-1.288-2.223-1.908-.266-.222-.582-.384-.889-.551a2.8 2.8 0 0 0-1.465-.36c-.382.015-.773.02-1.154-.01-.557-.043-.954-.422-1.03-.944-.07-.457.207-.95.668-1.127.176-.068.372-.098.562-.098 1.446-.01 2.891-.005 4.342-.005.541 0 .737-.192.737-.728 0-1.083-.005-2.165 0-3.247a1.26 1.26 0 0 0-.457-1.019c-1.821-1.604-3.633-3.217-5.45-4.831-.486-.433-.542-1.073-.135-1.54.401-.468 1.059-.512 1.576-.118 2.323 1.771 4.642 3.542 6.976 5.304.386.29.567.644.562 1.111-.01.778-.005 1.555-.005 2.338M1.005 22.205c0-.442.005-.885-.005-1.328-.005-.172.065-.285.18-.403q1.136-1.145 2.249-2.313c.155-.162.27-.354.406-.531a2.48 2.48 0 0 0 .507-1.61c-.03-1.406.005-2.818-.015-4.23-.01-.556.19-.95.647-1.294 2.32-1.732 4.613-3.494 6.916-5.25a1.123 1.123 0 0 1 1.536.133c.401.453.366 1.102-.1 1.525-.708.64-1.426 1.265-2.139 1.9-1.129.998-2.258 2.002-3.387 3a1.1 1.1 0 0 0-.397.866c0 1.147-.005 2.293 0 3.444 0 .424.221.63.658.63 1.49.005 2.976 0 4.467.005.702 0 1.194.482 1.179 1.132a1.05 1.05 0 0 1-.883 1.018 4 4 0 0 1-.924.035c-1.029-.099-1.897.27-2.665.87-.783.61-1.515 1.29-2.263 1.934-1.1.945-2.193 1.9-3.297 2.839-.894.762-2.214.428-2.595-.66a1.4 1.4 0 0 1-.07-.432c-.01-.424-.005-.851-.005-1.28"/><path d="M15.212 15.037v.699h-1.26c0-.192-.004-.38 0-.566.006-.138-.034-.197-.18-.232a2.9 2.9 0 0 1-1.164-.55c.23-.3.451-.586.652-.852.381.143.728.31 1.094.394.266.059.562.02.838-.025.211-.034.347-.196.361-.418.02-.226-.1-.384-.3-.462-.342-.128-.698-.227-1.044-.34-.251-.084-.512-.157-.758-.26-.577-.242-.883-.67-.899-1.3-.015-.659.236-1.19.838-1.476.392-.186.728-.324.532-.87.427 0 .798-.005 1.175.01.04 0 .11.122.11.191.025.419.025.409.422.546.23.08.452.192.702.306-.21.32-.381.6-.572.865-.03.04-.15.035-.22.015-.332-.083-.653-.192-.984-.256-.13-.024-.281.015-.417.05-.2.054-.336.187-.351.403-.015.212.08.374.276.453.256.103.517.182.778.265.286.094.582.163.858.266.798.305 1.12.787 1.079 1.58-.04.727-.497 1.269-1.25 1.48-.09.03-.185.054-.316.084"/></g><defs><clipPath id="a"><path fill="#fff" d="M1 5h27v20H1z"/></clipPath></defs></symbol><symbol viewBox="0 0 26.627335 29.000898" id="money_on_hand"><g fill="#caff33" clip-path="url(#a)"><path d="M17.692 6.878c.033.039.039.05.044.05.545.077.798.484 1.09.89.334.462.736.886 1.165 1.27 1.127 1.018 1.82 2.25 2.05 3.75.402 2.63-1.104 5.33-3.579 6.38-3.755 1.594-7.951-.83-8.385-4.889-.231-2.161.56-3.948 2.21-5.356a6.6 6.6 0 0 0 1.347-1.583.7.7 0 0 1 .303-.253c.187-.088.396-.138.632-.22a6 6 0 0 0-.193-.226c-.368-.38-.736-.77-1.11-1.138a.57.57 0 0 1-.187-.456c.01-.781.005-1.557.005-2.337 0-.314.385-.814.699-.875.357-.071.726-.11 1.083-.181a.5.5 0 0 0 .28-.17c.523-.705 1.441-.71 1.958-.012a.6.6 0 0 0 .324.193c.33.071.666.11 1.001.17.336.066.693.5.693.842 0 .786-.006 1.578.006 2.364a.62.62 0 0 1-.198.484c-.418.423-.82.858-1.238 1.303m-2.31 3.063c-.016.066-.032.104-.027.137.072.369-.099.528-.44.666-.648.27-.94.814-.923 1.512.016.693.39 1.122 1.017 1.347.275.1.56.17.836.264.253.083.506.165.748.264.203.083.319.242.297.473a.436.436 0 0 1-.38.412c-.214.044-.445.083-.649.033-.396-.093-.775-.252-1.193-.396-.187.248-.401.528-.66.875.39.17.726.346 1.083.467.204.066.286.154.259.363-.017.149-.006.303-.006.473h.842c.38 0 .396 0 .374-.39-.011-.242.044-.374.308-.407.137-.017.274-.094.4-.165.584-.32.826-.83.815-1.48-.011-.615-.32-1.039-.87-1.286-.247-.11-.51-.193-.774-.28-.33-.11-.66-.21-.99-.33-.204-.078-.286-.242-.27-.463.017-.208.143-.351.336-.384.23-.039.478-.06.704-.022.275.05.533.176.825.275.18-.28.368-.578.588-.924-.253-.116-.468-.259-.699-.297-.324-.055-.423-.204-.384-.512.01-.071-.088-.214-.149-.22-.33-.016-.676-.005-1.017-.005M15.68 28.989c-1.172 0-2.348-.033-3.52.01-.786.028-1.457-.208-2.09-.626-.896-.6-1.715-1.281-2.43-2.095-1.056-1.204-2.122-2.408-3.178-3.613-.863-.99-.473-2.452.759-2.854.143-.05.308-.066.456-.066.979-.005 1.963-.01 2.942.006a.64.64 0 0 1 .401.165c.671.649 1.331 1.314 1.986 1.98.131.131.252.159.44.131.395-.06.802-.115 1.204-.115 1.853-.011 3.7-.005 5.553-.005.633 0 1.1.324 1.265.863.253.814-.34 1.578-1.248 1.583-1.226.006-2.458 0-3.684 0-.22 0-.44-.005-.66 0-.396.011-.654.264-.66.622 0 .363.258.638.649.638q2.928.007 5.856 0c.396 0 .682-.22.957-.484a1186 1186 0 0 1 3.833-3.673c.522-.5 1.215-.523 1.71-.077.533.483.544 1.264.005 1.809-.566.577-1.144 1.121-1.715 1.677-1.265 1.226-2.53 2.447-3.79 3.673-.307.297-.648.45-1.082.45-1.32-.005-2.64 0-3.96 0M9.136 5.751l1.589 1.59c-.325.324-.665.664-1.006 1l-1.551-1.6c.302-.308.643-.66.968-.99M23.02 5.751c.325.324.66.67.974.984-.523.523-1.067 1.067-1.595 1.59-.319-.32-.654-.666-.99-1.001.523-.512 1.062-1.04 1.611-1.573M24.285 14.417c0-.467-.005-.896.006-1.325 0-.055.104-.154.159-.154.67-.011 1.336-.011 2.007 0 .055 0 .16.082.16.126.01.446.005.891.005 1.353zM7.855 14.434c-.76 0-1.469.005-2.183-.006-.055 0-.143-.104-.149-.165a16 16 0 0 1 0-1.155c0-.06.11-.17.17-.17q.99-.016 1.98 0c.06 0 .17.088.17.143.017.429.012.869.012 1.353"/></g><defs><clipPath id="a"><path fill="#fff" d="M4 1h22.628v28H4z"/></clipPath></defs></symbol><symbol viewBox="0 0 28.12533 27.187998" id="office"><path fill="#caff33" fill-rule="evenodd" d="M3.75 2.813a.937.937 0 1 0 0 1.874v20.626h-.937a.937.937 0 1 0 0 1.875H18.75v-22.5a.937.937 0 1 0 0-1.875zm4.688 21.562v-2.812c0-.518.42-.938.937-.938h3.75c.518 0 .938.42.938.938v2.812c0 .518-.42.938-.938.938h-3.75a.937.937 0 0 1-.937-.938M7.5 8.438c0-.518.42-.938.938-.938h.937a.937.937 0 1 1 0 1.875h-.937a.937.937 0 0 1-.938-.937m.938 2.812a.937.937 0 1 0 0 1.875h.937a.937.937 0 1 0 0-1.875zM7.5 15.938c0-.518.42-.938.938-.938h.937a.937.937 0 1 1 0 1.875h-.937a.937.937 0 0 1-.938-.937M13.125 7.5a.937.937 0 1 0 0 1.875h.938a.937.937 0 1 0 0-1.875zm-.937 4.688c0-.518.42-.938.937-.938h.938a.937.937 0 1 1 0 1.875h-.938a.937.937 0 0 1-.937-.937M13.125 15a.937.937 0 1 0 0 1.875h.938a.937.937 0 1 0 0-1.875zM20.625 8.438v18.75h6.563a.937.937 0 1 0 0-1.875h-.938v-15a.937.937 0 1 0 0-1.876zm1.875 5.624c0-.517.42-.937.938-.937h.009c.518 0 .937.42.937.938v.009c0 .518-.42.937-.937.937h-.01a.94.94 0 0 1-.937-.937zm.938 2.813a.937.937 0 0 0-.938.938v.009c0 .518.42.937.938.937h.009c.518 0 .937-.42.937-.937v-.01a.94.94 0 0 0-.937-.937zm-.938 4.688c0-.518.42-.938.938-.938h.009c.518 0 .937.42.937.938v.009c0 .518-.42.937-.937.937h-.01a.94.94 0 0 1-.937-.937z" clip-rule="evenodd"/></symbol><symbol viewBox="0 0 31.877333 29.751999" id="patch"><path fill="#caff33" fill-rule="evenodd" d="M2.125 13.93v2.539a2.656 2.656 0 0 0 2.656 2.656H29.22a2.656 2.656 0 0 0 2.656-2.656v-2.54a4.25 4.25 0 0 0-1.023-2.766l-4.654-5.429a4.25 4.25 0 0 0-3.227-1.484H11.03a4.25 4.25 0 0 0-3.227 1.484l-4.654 5.43a4.25 4.25 0 0 0-1.023 2.765m8.904-7.555c-.62 0-1.21.271-1.614.742l-3.917 4.57h4.484a4.25 4.25 0 0 1 3.536 1.893l.232.349a2.13 2.13 0 0 0 1.768.946h2.964c.71 0 1.374-.355 1.768-.946l.232-.349a4.25 4.25 0 0 1 3.536-1.892h4.484l-3.917-4.57a2.13 2.13 0 0 0-1.614-.743z" clip-rule="evenodd"/><path fill="#caff33" d="M3.984 21.25a1.86 1.86 0 0 0-1.859 1.86v2.39a4.25 4.25 0 0 0 4.25 4.25h21.25a4.25 4.25 0 0 0 4.25-4.25v-2.39a1.86 1.86 0 0 0-1.86-1.86h-5.997a4.25 4.25 0 0 0-3.536 1.892l-.232.35a2.13 2.13 0 0 1-1.768.945h-2.964c-.71 0-1.374-.355-1.768-.946l-.232-.349a4.25 4.25 0 0 0-3.536-1.892z"/></symbol><symbol viewBox="0 0 20.248 22.498056" id="pointer"><path fill="#caff33" fill-rule="evenodd" d="m11.54 22.351.07.04.028.016a.76.76 0 0 0 .723 0l.028-.015.071-.041q.091-.053.255-.153c.217-.133.524-.33.89-.589a19.6 19.6 0 0 0 2.682-2.282c1.944-1.99 3.963-4.98 3.963-8.827a8.25 8.25 0 0 0-16.5 0c0 3.846 2.02 6.837 3.963 8.827a19.6 19.6 0 0 0 2.682 2.282 17 17 0 0 0 1.145.742M12 13.5a3 3 0 1 0 0-6 3 3 0 0 0 0 6" clip-rule="evenodd"/></symbol><symbol viewBox="0 0 30.813334 30.813334" id="protection"><path fill="#caff33" fill-rule="evenodd" d="M17 3.188C9.372 3.188 3.188 9.372 3.188 17S9.372 30.813 17 30.813 30.813 24.628 30.813 17 24.628 3.188 17 3.188m-4.25 7.437a1.063 1.063 0 0 0 0 2.125h2.125c1.388 0 2.569.887 3.006 2.125H12.75a1.063 1.063 0 0 0 0 2.125h5.131a3.19 3.19 0 0 1-3.006 2.125H12.75a1.063 1.063 0 0 0-.751 1.814l4.25 4.25a1.063 1.063 0 0 0 1.502-1.503l-2.453-2.453A5.316 5.316 0 0 0 20.082 17h1.169a1.063 1.063 0 0 0 0-2.125h-1.169a5.3 5.3 0 0 0-.956-2.125h2.125a1.063 1.063 0 0 0 0-2.125z" clip-rule="evenodd"/></symbol><symbol viewBox="0 0 54.670322 50.324" id="quotes"><path fill="url(#a)" stroke="#caff33" d="M21.269 47.824a2.5 2.5 0 0 1-2.5 2.5H7.5a2.5 2.5 0 0 1-2.5-2.5v-9.108q.002-4.885 1.777-10.125v-.003a43.7 43.7 0 0 1 4.934-9.969v-.002q2.699-4.039 5.955-7.008c.833-.76 2.062-.808 2.977-.199l6.026 4.016c1.14.76 1.445 2.282.75 3.44a59 59 0 0 0-4.171 8.38v.001c-1.351 3.418-2.014 7.201-1.979 11.356zm26.88 0a2.5 2.5 0 0 1-2.5 2.5H34.38a2.5 2.5 0 0 1-2.5-2.5v-9.108q.002-4.885 1.776-10.125v-.003a43.7 43.7 0 0 1 4.934-9.969l.001-.002q2.698-4.039 5.953-7.008c.834-.76 2.064-.808 2.979-.199l6.026 4.016c1.14.76 1.445 2.282.75 3.44a59 59 0 0 0-4.172 8.38l.001.001q-2.03 5.125-1.98 11.356z"/><defs><linearGradient id="a" x1="30.206" x2="30.206" y1="11" y2="49.824" gradientUnits="userSpaceOnUse"><stop stop-color="#caff33"/><stop offset="1" stop-color="#191919"/></linearGradient></defs></symbol><symbol viewBox="0 0 26.209333 25.5" id="right_arrow"><path stroke="#caff33" stroke-linecap="round" stroke-linejoin="round" stroke-width="2" d="M8.5 17H26.21m-8.5 8.5 8.5-8.5-8.5-8.5"/></symbol><symbol viewBox="0 0 31.876846 31.878668" id="stack"><path fill="#caff33" d="M16.496 2.252c.315-.17.693-.17 1.008 0L31.316 9.69a1.062 1.062 0 0 1 0 1.87l-13.812 7.438c-.315.17-.693.17-1.008 0L2.684 11.56a1.062 1.062 0 0 1 0-1.87z"/><path fill="#caff33" d="m4.625 15.02 10.864 5.849a3.19 3.19 0 0 0 3.022 0l10.864-5.85 1.941 1.045a1.062 1.062 0 0 1 0 1.872l-13.812 7.437c-.315.17-.693.17-1.008 0L2.684 17.936a1.062 1.062 0 0 1 0-1.872z"/><path fill="#caff33" d="m15.489 27.244-10.864-5.85-1.941 1.046a1.062 1.062 0 0 0 0 1.87l13.812 7.438c.315.17.693.17 1.008 0l13.812-7.437a1.062 1.062 0 0 0 0-1.872l-1.941-1.045-10.864 5.85a3.19 3.19 0 0 1-3.022 0"/></symbol><symbol viewBox="0 0 31.875854 31.872887" id="stars"><path fill="#caff33" fill-rule="evenodd" d="M12.75 6.375c.474 0 .891.314 1.022.77l1.152 4.033a5.31 5.31 0 0 0 3.648 3.648l4.032 1.152a1.062 1.062 0 0 1 0 2.044l-4.032 1.152a5.31 5.31 0 0 0-3.648 3.648l-1.152 4.032a1.062 1.062 0 0 1-2.044 0l-1.152-4.032a5.31 5.31 0 0 0-3.648-3.648l-4.032-1.152a1.062 1.062 0 0 1 0-2.044l4.032-1.152a5.31 5.31 0 0 0 3.648-3.648l1.152-4.032c.13-.457.548-.771 1.022-.771M25.5 2.125c.488 0 .913.332 1.03.805l.367 1.467a3.72 3.72 0 0 0 2.706 2.706l1.467.366a1.062 1.062 0 0 1 0 2.062l-1.467.367a3.72 3.72 0 0 0-2.706 2.705l-.366 1.467a1.063 1.063 0 0 1-2.062 0l-.367-1.467a3.72 3.72 0 0 0-2.705-2.705L19.93 9.53a1.062 1.062 0 0 1 0-2.062l1.467-.367a3.72 3.72 0 0 0 2.706-2.705l.366-1.467a1.06 1.06 0 0 1 1.031-.805M23.375 21.25c.457 0 .863.293 1.008.727l.559 1.675c.211.635.709 1.133 1.343 1.344l1.676.559a1.062 1.062 0 0 1 0 2.015l-1.675.559a2.13 2.13 0 0 0-1.344 1.344l-.559 1.675a1.062 1.062 0 0 1-2.016 0l-.559-1.675a2.13 2.13 0 0 0-1.343-1.344l-1.676-.559a1.062 1.062 0 0 1 0-2.015l1.675-.559a2.13 2.13 0 0 0 1.345-1.344l.558-1.675c.145-.434.55-.727 1.008-.727" clip-rule="evenodd"/></symbol><symbol viewBox="0 0 28.12699 27.14463" id="task_board"><path fill="#caff33" fill-rule="evenodd" d="M2.813 2.813a.937.937 0 1 0 0 1.874h.937v13.125a3.75 3.75 0 0 0 3.75 3.75h1.512l-1.464 4.391a.938.938 0 0 0 1.779.594l.411-1.235h10.524l.411 1.235a.938.938 0 0 0 1.779-.594l-1.464-4.39H22.5a3.75 3.75 0 0 0 3.75-3.75V4.688h.938a.937.937 0 1 0 0-1.875zm7.55 20.625.625-1.875h8.024l.625 1.875zm9.325-15a.937.937 0 1 0-1.875 0v7.5a.937.937 0 1 0 1.875 0zm-3.75 2.812a.937.937 0 1 0-1.876 0v4.688a.937.937 0 1 0 1.876 0zm-3.75 2.813a.937.937 0 1 0-1.876 0v1.874a.937.937 0 1 0 1.876 0z" clip-rule="evenodd"/></symbol><symbol viewBox="0 0 22.498667 22.5" id="telephone"><path fill="#caff33" fill-rule="evenodd" d="M1.5 4.5a3 3 0 0 1 3-3h1.372c.86 0 1.61.586 1.819 1.42l1.105 4.423a1.88 1.88 0 0 1-.694 1.955l-1.293.97c-.135.101-.164.249-.126.352a11.29 11.29 0 0 0 6.697 6.697c.103.038.25.009.352-.126l.97-1.293a1.88 1.88 0 0 1 1.955-.694l4.423 1.105c.834.209 1.42.959 1.42 1.82V19.5a3 3 0 0 1-3 3h-2.25C8.552 22.5 1.5 15.448 1.5 6.75z" clip-rule="evenodd"/></symbol><symbol viewBox="0 0 24 21.750666" id="twitter"><path fill="#262626" d="M7.55 21.75c9.055 0 14.008-7.504 14.008-14.008 0-.211-.004-.427-.014-.638A10 10 0 0 0 24 4.555c-.898.4-1.85.66-2.826.773a4.95 4.95 0 0 0 2.165-2.722A9.9 9.9 0 0 1 20.213 3.8a4.93 4.93 0 0 0-8.394 4.49A13.98 13.98 0 0 1 1.673 3.15a4.93 4.93 0 0 0 1.523 6.57 4.9 4.9 0 0 1-2.23-.614v.06a4.92 4.92 0 0 0 3.95 4.829 4.9 4.9 0 0 1-2.221.084 4.93 4.93 0 0 0 4.597 3.422A9.88 9.88 0 0 1 0 19.538a13.97 13.97 0 0 0 7.55 2.212"/></symbol><symbol viewBox="0 0 26.917334 26.917334" id="up_arrow"><path fill="none" stroke="#caff33" stroke-linecap="round" stroke-linejoin="round" stroke-width="2" d="M8.5 26.917 26.917 8.5m-17.68 0h17.68v17.68"/></symbol></svg>
